<svg xmlns="http://www.w3.org/2000/svg" style="display:none">

  <symbol id="icon-arrows-swap" viewBox="0 0 40 40">
    <path
      d="M16.0054 9.99723C15.475 9.99723 14.9663 10.2079 14.5912 10.583C14.2161 10.9581 14.0054 11.4668 14.0054 11.9972C14.0054 12.5277 14.2161 13.0364 14.5912 13.4114C14.9663 13.7865 15.475 13.9972 16.0054 13.9972H27.1774L24.5914 16.5832C24.2271 16.9604 24.0255 17.4656 24.0301 17.99C24.0346 18.5144 24.245 19.0161 24.6158 19.3869C24.9866 19.7577 25.4882 19.968 26.0126 19.9726C26.537 19.9771 27.0422 19.7755 27.4194 19.4112L33.4194 13.4112C33.7944 13.0362 34.005 12.5276 34.005 11.9972C34.005 11.4669 33.7944 10.9583 33.4194 10.5832L27.4194 4.58323C27.2349 4.39221 27.0142 4.23985 26.7702 4.13503C26.5262 4.03021 26.2638 3.97504 25.9982 3.97273C25.7327 3.97042 25.4693 4.02103 25.2235 4.12159C24.9777 4.22215 24.7544 4.37066 24.5666 4.55844C24.3789 4.74623 24.2304 4.96953 24.1298 5.21532C24.0292 5.46112 23.9786 5.72448 23.9809 5.99004C23.9832 6.25559 24.0384 6.51803 24.1432 6.76204C24.248 7.00605 24.4004 7.22674 24.5914 7.41123L27.1774 9.99723H16.0054Z"
      fill="currentColor" />

    <path
      d="M24.0054 29.9972C24.5359 29.9972 25.0446 29.7865 25.4196 29.4114C25.7947 29.0364 26.0054 28.5277 26.0054 27.9972C26.0054 27.4668 25.7947 26.9581 25.4196 26.583C25.0446 26.2079 24.5359 25.9972 24.0054 25.9972H12.8334L15.4194 23.4112C15.6105 23.2267 15.7628 23.006 15.8676 22.762C15.9725 22.518 16.0276 22.2556 16.0299 21.99C16.0322 21.7245 15.9816 21.4611 15.8811 21.2153C15.7805 20.9695 15.632 20.7462 15.4442 20.5584C15.2564 20.3707 15.0331 20.2222 14.7873 20.1216C14.5415 20.021 14.2782 19.9704 14.0126 19.9727C13.7471 19.975 13.4846 20.0302 13.2406 20.135C12.9966 20.2398 12.7759 20.3922 12.5914 20.5832L6.59143 26.5832C6.21649 26.9583 6.00586 27.4669 6.00586 27.9972C6.00586 28.5276 6.21649 29.0362 6.59143 29.4112L12.5914 35.4112C12.9686 35.7755 13.4738 35.9771 13.9982 35.9726C14.5226 35.968 15.0243 35.7577 15.3951 35.3869C15.7659 35.0161 15.9762 34.5144 15.9808 33.99C15.9853 33.4656 15.7837 32.9604 15.4194 32.5832L12.8334 29.9972H24.0054Z"
      fill="currentColor" />
  </symbol>
  <symbol id="arrow-right" viewBox="0 0 20 20">
    <path d="M4.16602 10H15.8327" stroke="#07020D" stroke-width="1.5" stroke-linecap="round" stroke-linejoin="round" />
    <path d="M10 4.16675L15.8333 10.0001L10 15.8334" stroke="#07020D" stroke-width="1.5" stroke-linecap="round"
      stroke-linejoin="round" />
  </symbol>
</svg>